<svg xmlns="http://www.w3.org/2000/svg" width="84.436" height="40.623" fill="none"><path fill="#2196F3" fill-rule="evenodd" d="M13.143 12.403h.003c2.398 0 4.342 1.727 4.342 3.859v.002c0 2.131-1.944 3.859-4.342 3.859h-.003c-2.398 0-4.342-1.728-4.342-3.859v-.002c0-2.132 1.944-3.86 4.342-3.86Z"/><path fill="#2196F3" d="M45.195 11.17c-.007-2.96-1.333-5.798-3.688-7.891C39.153 1.186 35.96.007 32.63 0c-3.332.005-6.526 1.184-8.882 3.277-2.356 2.094-3.682 4.932-3.69 7.892v16.323s25.134-2.488 25.137-16.32v-.003ZM0 32.85c.006 2.06.93 4.033 2.568 5.49 1.638 1.456 3.859 2.277 6.176 2.283 2.317-.006 4.537-.827 6.176-2.283 1.638-1.456 2.562-3.429 2.568-5.488V21.494S0 23.227 0 32.85Zm8.744 2.035c-.453 0-.895-.12-1.272-.343a2.108 2.108 0 0 1-.843-.914 1.826 1.826 0 0 1-.13-1.175c.088-.395.306-.758.626-1.043.32-.284.728-.478 1.172-.556a2.556 2.556 0 0 1 1.323.116c.419.153.777.414 1.028.749.252.335.386.728.386 1.13a1.84 1.84 0 0 1-.172.782 2.034 2.034 0 0 1-.496.662c-.212.19-.465.34-.744.444a2.542 2.542 0 0 1-.878.155v-.008Z"/><path fill="#2196F3" fill-rule="evenodd" d="M30.42 34.575q.222-.474.222-1.104v-.19q0-.627-.227-1.106-.171-.363-.45-.598-.09-.075-.191-.138-.086-.053-.177-.095-.348-.161-.771-.161-.423 0-.771.161-.091.042-.177.095-.1.063-.19.138-.28.235-.451.598-.227.479-.227 1.108v.211q.002.616.231 1.089.167.345.433.574.1.085.212.154.092.057.191.101.343.154.755.154.43 0 .782-.166.087-.041.168-.092.117-.073.22-.163.258-.229.418-.57Zm2.998-.462q.075.113.075.275 0 .128-.056.225-.043.075-.12.13-.176.128-.49.128-.495 0-.7-.244-.143-.17-.143-.462h-.882q0 .31.119.562.04.086.094.165l.008.012q.212.305.608.481.405.18.897.18.709 0 1.128-.314.18-.136.283-.316.136-.238.136-.553 0-.282-.11-.511-.084-.176-.233-.321-.343-.334-1.093-.56-.407-.123-.617-.263-.148-.1-.191-.234-.018-.055-.018-.115 0-.109.043-.197.044-.092.136-.162.178-.136.5-.136.335 0 .52.163.046.04.08.09.104.146.104.365h.879q0-.263-.093-.488-.043-.103-.105-.197-.043-.066-.093-.125-.182-.213-.462-.343-.358-.165-.815-.165-.454 0-.819.152-.364.152-.559.424-.08.11-.126.232-.069.18-.069.384 0 .2.066.376.153.407.66.682.267.143.724.291.457.148.633.282.062.046.102.107Zm34.319 0q.074.113.074.275 0 .128-.055.225-.043.075-.12.13-.176.128-.49.128-.496 0-.7-.244-.144-.17-.144-.462h-.881q0 .31.118.562.04.086.094.165l.008.012q.212.305.609.481.404.18.896.18.71 0 1.128-.314.18-.136.284-.316.135-.238.135-.553 0-.282-.11-.511-.084-.176-.233-.321-.342-.334-1.092-.56-.408-.123-.617-.263-.149-.1-.192-.234-.018-.055-.018-.115 0-.109.043-.197.045-.092.136-.162.179-.136.501-.136.334 0 .519.163.046.04.08.09.104.146.104.365h.88q0-.263-.094-.488-.043-.103-.105-.197-.042-.066-.093-.125-.182-.213-.462-.343-.357-.165-.814-.165-.454 0-.82.152-.364.152-.559.424-.079.11-.126.232-.069.18-.069.384 0 .2.066.376.153.407.661.682.267.143.724.291.457.148.632.282.062.046.102.107Zm-43.007-.35h1.688v-.708H24.73v-1.102h1.899v-.712H23.85v4.266h.88v-1.743Zm12.144-1.81h1.306v-.712h-3.474v.712h1.289v3.554h.879v-3.554Zm2.686 1.705h1.688v-.688H39.56v-1.017h1.975v-.712H38.68v4.266h2.86v-.706h-1.98v-1.143Zm3.375.288h.7l.8 1.561h.944v-.04l-.923-1.744q.384-.173.573-.465.188-.291.188-.727 0-.43-.199-.723-.086-.128-.21-.23-.41-.337-1.167-.337h-1.585v4.266h.88v-1.561Zm5.323 1.561v-1.503h.771q.759 0 1.188-.362.149-.125.246-.283.183-.296.183-.705 0-.328-.123-.6-.033-.07-.073-.137-.058-.096-.13-.178-.174-.198-.431-.322-.365-.176-.845-.176H47.38v4.266h.878Zm3.87-1.849h1.688v-.688H52.13v-1.017h1.974v-.712H51.25v4.266h2.86v-.706h-1.981v-1.143Zm4.46-1.705h1.306v-.712H54.42v.712h1.289v3.554h.879v-3.554Zm2.686 1.705h1.688v-.688h-1.688v-1.017h1.975v-.712h-2.854v4.266h2.86v-.706h-1.98v-1.143Zm3.375.288h.7l.8 1.561h.944v-.04l-.923-1.744q.383-.173.572-.465.19-.291.19-.727 0-.43-.2-.723-.087-.128-.21-.23-.41-.337-1.167-.337H61.77v4.266h.88v-1.561Zm-33.137-1.688q.24.349.24 1.02v.208q-.003.665-.24 1.012-.105.153-.25.239-.183.108-.43.108t-.43-.107q-.152-.09-.262-.253-.24-.36-.24-1.014v-.208q.003-.665.243-1.01.106-.15.25-.235.185-.109.433-.109t.433.11q.146.085.253.24Zm14.132.976h-.709v-1.28h.706q.355 0 .526.172.027.027.049.057.123.163.123.418 0 .227-.107.378-.032.047-.075.086l-.009.008q-.18.16-.504.16Zm5.4.058h-.785v-1.339h.805q.264.005.436.134.04.03.074.066.041.043.073.092.111.171.111.414 0 .245-.118.4-.029.037-.065.07-.183.163-.531.163Zm14.314-.058h-.709v-1.28h.706q.355 0 .526.172.026.027.049.057.122.163.122.418 0 .227-.106.378-.033.047-.075.086l-.01.008q-.18.16-.503.16Z"/></svg>