<svg xmlns="http://www.w3.org/2000/svg" width="93.794" height="43.926" fill="none" viewBox="0 0 93.794 43.925"><path fill="#AFB1B8" d="M47.425 20.642a2.947 2.947 0 0 1-.605-1.989V15.77c0-.884.2-1.556.602-2.015.4-.46 1.089-.689 2.065-.687.917 0 1.569.196 1.953.587.42.499.625 1.11.578 1.725v.677h-1.64v-.686c.005-.225-.01-.45-.048-.672a.65.65 0 0 0-.235-.399.949.949 0 0 0-.594-.155 1.006 1.006 0 0 0-.625.164.768.768 0 0 0-.272.44 3.331 3.331 0 0 0-.065.713v3.499c-.026.338.047.675.21.983a.77.77 0 0 0 .328.238.9.9 0 0 0 .424.055.893.893 0 0 0 .58-.159.704.704 0 0 0 .245-.425 3.86 3.86 0 0 0 .051-.701v-.71h1.641v.648a2.64 2.64 0 0 1-.567 1.813c-.377.428-1.02.643-1.964.643s-1.658-.23-2.062-.704ZM54.257 20.67c-.414-.448-.622-1.102-.622-1.967V15.67c0-.856.208-1.505.622-1.945.414-.44 1.107-.659 2.079-.657.965 0 1.654.22 2.069.657.414.44.625 1.089.625 1.945v3.033c0 .856-.21 1.513-.632 1.965-.421.452-1.107.678-2.062.678-.955 0-1.661-.23-2.08-.675Zm2.843-.727c.149-.28.216-.588.197-.897v-3.713a1.649 1.649 0 0 0-.193-.88.776.776 0 0 0-.335-.242.908.908 0 0 0-.433-.052.92.92 0 0 0-.434.052.788.788 0 0 0-.337.242c-.15.274-.217.577-.197.88v3.73c-.02.31.047.617.197.898.096.095.214.17.346.223a1.16 1.16 0 0 0 .843 0c.133-.053.25-.128.346-.223v-.017ZM61.004 13.157h1.766l1.328 5.596 1.36-5.596h1.718l.174 8.077h-1.271l-.136-5.614-1.311 5.614h-1.02L62.255 15.6l-.126 5.634h-1.284l.16-8.077ZM69.33 13.157h2.752c1.585 0 2.378.764 2.378 2.293 0 1.465-.835 2.196-2.504 2.194h-.937v3.59H69.32l.01-8.077Zm2.351 3.452c.168.018.338.005.5-.04.161-.043.31-.117.434-.215.195-.273.281-.593.245-.912a2.529 2.529 0 0 0-.082-.734.592.592 0 0 0-.125-.221.703.703 0 0 0-.214-.163 1.758 1.758 0 0 0-.758-.129h-.659v2.414h.66ZM76.91 13.157h1.824l1.872 8.077h-1.584l-.37-1.863h-1.627l-.38 1.863h-1.607l1.871-8.077Zm1.559 5.279-.635-3.39-.636 3.39h1.27ZM82.117 13.157h1.19l2.275 4.607v-4.607h1.41v8.077h-1.13l-2.29-4.81v4.81h-1.458l.003-8.077ZM90.294 18.154l-1.892-4.986h1.594l1.154 3.203 1.084-3.203h1.56l-1.869 4.986v3.08h-1.63v-3.08ZM50.048 24.765v.422h-1.386v3.282h-.581v-3.282h-1.393v-.422h3.36ZM54.393 28.47h-.449a.2.2 0 0 1-.126-.036.194.194 0 0 1-.074-.085l-.401-.88H51.42l-.4.88a.243.243 0 0 1-.062.1.207.207 0 0 1-.126.035h-.448l1.699-3.704h.59l1.72 3.69Zm-2.813-1.376h1.603l-.68-1.508a2.694 2.694 0 0 1-.125-.348c-.024.07-.044.137-.064.196l-.062.155-.672 1.505ZM57.321 28.106c.107.005.213.005.32 0 .091-.009.182-.023.271-.044a2.09 2.09 0 0 0 .245-.068c.075-.026.15-.058.228-.09v-.834h-.68a.132.132 0 0 1-.092-.03.086.086 0 0 1-.026-.03.076.076 0 0 1-.008-.037v-.284h1.319v1.42a2.55 2.55 0 0 1-.717.302c-.14.035-.281.06-.425.076-.165.016-.33.024-.496.024a2.592 2.592 0 0 1-.856-.138 2.09 2.09 0 0 1-.68-.388 1.788 1.788 0 0 1-.438-.586 1.852 1.852 0 0 1-.156-.769 1.923 1.923 0 0 1 .153-.774c.098-.22.247-.42.438-.587.194-.166.425-.297.68-.384.29-.094.6-.141.91-.138.158 0 .316.01.472.032.138.02.274.051.404.094.12.039.233.088.34.147.104.058.203.123.296.194l-.163.228a.144.144 0 0 1-.055.051.173.173 0 0 1-.078.02.223.223 0 0 1-.105-.03 2.113 2.113 0 0 1-.167-.088 1.494 1.494 0 0 0-.227-.1 2.128 2.128 0 0 0-.313-.081 2.613 2.613 0 0 0-.431-.033 2.007 2.007 0 0 0-.656.103c-.189.066-.36.166-.5.293-.14.133-.248.29-.315.46a1.731 1.731 0 0 0 0 1.236c.074.174.19.333.34.466.139.127.308.227.495.293.216.064.445.09.673.074ZM62.736 28.047h1.855v.422H62.17v-3.704h.58l-.013 3.282ZM66.52 28.47h-.58v-3.705h.58v3.704ZM68.681 24.783c.035.017.065.04.089.067l2.483 2.793a.857.857 0 0 1 0-.133V24.75h.506v3.72h-.292a.274.274 0 0 1-.126-.02.327.327 0 0 1-.091-.071l-2.48-2.79V28.47h-.486v-3.705h.302a.27.27 0 0 1 .095.018ZM76.036 24.765v.408h-2.058v1.223h1.668v.393h-1.668v1.264h2.058v.407H73.38v-3.695h2.656ZM15.162 1.889l25.795 6.323V30.37l-25.795-6.32V1.889ZM13.507 0v25.126l29.1 7.136V7.139L13.508 0Z"/><path fill="#AFB1B8" d="M29.104 43.925 0 36.785V11.66l29.104 7.14v25.125Z"/><path fill="#AFB1B8" d="m13.99 1.604 25.458 6.244-10.826 9.35-25.463-6.247 10.83-9.347ZM13.507 0 0 11.661l29.104 7.138L42.608 7.14 13.508 0ZM30.741 42.512l11.867-10.247-11.866-2.913v13.16Z"/></svg>