<svg xmlns="http://www.w3.org/2000/svg" width="40" height="51.999" fill="none"><path fill="#AFB1B8" fill-rule="evenodd" d="M16.977 2.935h.137c.253 0 .526.025.796.048a22.62 22.62 0 0 1 3.542.534V.654A21.1 21.1 0 0 0 17.797.07 29.31 29.31 0 0 0 16.319 0h-.427c-2.475.01-4.94.327-7.336.946-2.73.68-5.351 1.747-7.784 3.166v28.396a31.64 31.64 0 0 1 7.42-2.89 32.37 32.37 0 0 1 6.227-.957h.084c.352-.018.703-.028 1.065-.03v-2.91a34.329 34.329 0 0 0-8.095 1.076c-.98.255-1.925.53-2.813.834l-1.012.344V5.833l.432-.208a28.28 28.28 0 0 1 10.517-2.683.628.628 0 0 1 .09 0c.403-.02.808-.03 1.205-.03h.455c.21.005.42.01.63.023Zm5.176 2.926a25.9 25.9 0 0 0 1.958.072 31.468 31.468 0 0 0 7.713-.99 31.775 31.775 0 0 0 7.417-2.893v27.89a29.816 29.816 0 0 1-7.786 3.166 29.939 29.939 0 0 1-7.337.944 22.405 22.405 0 0 1-5.565-.657V5.323c.43.099.873.19 1.323.266.739.125 1.518.216 2.277.272Zm14.194.217-1.012.34a44.62 44.62 0 0 1-2.813.842 34.262 34.262 0 0 1-8.406 1.078c-.66 0-1.267-.018-1.854-.056l-.807-.053v22.777l.693.06a22.85 22.85 0 0 0 1.973.085 26.889 26.889 0 0 0 6.62-.857 27.767 27.767 0 0 0 5.173-1.86l.433-.208V6.078Z" clip-rule="evenodd"/><path fill="#AFB1B8" d="M2.737 42.212a1.493 1.493 0 0 0-1.126-.455 1.676 1.676 0 0 0-.65.122 1.463 1.463 0 0 0-.832.842c-.08.2-.119.413-.116.628v3.794c-.01.267.042.533.149.778.09.195.219.368.38.509.151.128.329.22.52.27.185.051.375.078.567.078.211.002.42-.043.612-.132a1.598 1.598 0 0 0 .96-1.465v-.424h-.993v.338a.88.88 0 0 1-.058.338.61.61 0 0 1-.144.214.696.696 0 0 1-.415.145.502.502 0 0 1-.465-.204.9.9 0 0 1-.132-.508v-3.538c-.006-.196.036-.39.122-.567a.507.507 0 0 1 .485-.229.527.527 0 0 1 .443.214c.11.146.169.325.164.509v.328h.982v-.387a1.788 1.788 0 0 0-.122-.663 1.562 1.562 0 0 0-.33-.535ZM8.629 42.169a1.766 1.766 0 0 0-1.128-.417c-.202 0-.403.037-.592.107A1.562 1.562 0 0 0 6 42.7c-.1.231-.15.482-.145.734v3.64c-.007.255.043.51.144.744.09.196.222.37.385.509.152.14.33.25.524.32a1.71 1.71 0 0 0 1.72-.32c.158-.142.286-.315.374-.509.102-.234.151-.489.144-.745v-3.639a1.77 1.77 0 0 0-.144-.735 1.644 1.644 0 0 0-.374-.531Zm-.463 4.905a.656.656 0 0 1-.197.527.727.727 0 0 1-.934 0 .653.653 0 0 1-.197-.527v-3.639a.652.652 0 0 1 .197-.526.726.726 0 0 1 .934 0 .653.653 0 0 1 .197.526v3.64ZM16.367 48.7v-6.89h-.953l-1.253 3.647h-.017L12.88 41.81h-.943v6.89h.984v-4.192h.018l.963 2.963h.491l.972-2.962h.017v4.19h.984ZM21.958 42.294c-.151-.17-.343-.3-.556-.377a2.183 2.183 0 0 0-.714-.107h-1.462v6.89h.982v-2.691h.505c.307.014.611-.051.886-.188a1.43 1.43 0 0 0 .539-.527c.113-.183.19-.387.225-.6.038-.26.056-.521.053-.783.01-.33-.023-.662-.096-.984a1.466 1.466 0 0 0-.362-.633Zm-.506 2.1a.87.87 0 0 1-.09.359.553.553 0 0 1-.254.241 1.008 1.008 0 0 1-.463.087h-.448v-2.343h.506a.94.94 0 0 1 .443.087.555.555 0 0 1 .23.254c.054.121.083.252.086.384v.458c0 .16.01.325 0 .473h-.01ZM26.608 41.81h-.805l-1.518 6.89h.982l.288-1.48h1.339l.288 1.48h.982l-1.556-6.89Zm-.906 4.471.483-2.497h.018l.48 2.497h-.981ZM32.95 45.96h-.018l-1.482-4.15h-.944v6.89h.982v-4.143h.02l1.5 4.142h.923V41.81h-.981v4.15ZM38.948 41.81l-.79 2.74h-.02l-.79-2.74H36.31l1.349 3.978v2.911h.98v-2.911l1.35-3.977h-1.04ZM0 50.645h.473v1.327h.321v-1.327h.47v-.272H0v.272ZM3.977 50.373l-.62 1.599h.341l.132-.364h.638l.136.364h.35l-.636-1.6h-.341Zm-.05.966.217-.593.217.593h-.435ZM7.908 51.382h.37v.206a.612.612 0 0 1-.38.135.405.405 0 0 1-.34-.153.668.668 0 0 1-.118-.417c0-.356.154-.534.46-.534a.337.337 0 0 1 .362.255l.316-.062c-.068-.312-.293-.47-.678-.47a.805.805 0 0 0-.559.206.782.782 0 0 0-.23.615.873.873 0 0 0 .205.6.776.776 0 0 0 .607.235.961.961 0 0 0 .678-.255v-.63h-.693v.27ZM11.923 50.373h-.324v1.599h1.12V51.7h-.796v-1.327Z"/><path fill="#AFB1B8" fill-rule="evenodd" d="M14.994 50.373h.324v1.599h-.324v-1.6Z"/><path fill="#AFB1B8" d="m18.637 51.44-.656-1.067h-.313v1.599h.3v-1.045l.643 1.045h.322v-1.6h-.296v1.069ZM21.637 51.268h.797v-.272h-.797v-.351h.857v-.272h-1.181v1.599h1.214V51.7h-.89v-.432ZM28.912 51.003h-.63v-.63h-.32v1.599h.32v-.7h.63v.7h.322v-1.6h-.322v.631ZM31.93 51.268h.8v-.272h-.8v-.351h.86v-.272H31.61v1.599h1.212V51.7h-.89v-.432ZM36.023 51.268c.278-.044.42-.191.42-.445a.383.383 0 0 0-.157-.356.902.902 0 0 0-.468-.094h-.678v1.599h.322v-.669h.063a.43.43 0 0 1 .2.036c.047.029.086.069.114.117l.349.508h.384l-.195-.312a1.114 1.114 0 0 0-.354-.384Zm-.324-.222h-.237v-.401h.253c.11-.01.22.004.326.038a.21.21 0 0 1 .046.255.206.206 0 0 1-.061.07.91.91 0 0 1-.327.038ZM39.11 51.268h.796v-.272h-.796v-.351h.86v-.272h-1.184v1.599H40V51.7h-.89v-.432Z"/></svg>