<svg xmlns="http://www.w3.org/2000/svg" width="43.46" height="41.182" fill="none" viewBox="0 0 43.46 41.181"><path fill="#AFB1B8" d="M6.726 40.401c.016 0 .032.004.046.01a.122.122 0 0 1 .039.024l.218.208c-.17.169-.379.304-.614.396-.275.1-.571.148-.87.142-.28.005-.558-.04-.817-.133a1.794 1.794 0 0 1-.616-.374 1.673 1.673 0 0 1-.399-.578 1.927 1.927 0 0 1-.139-.742 1.725 1.725 0 0 1 .573-1.322c.186-.163.409-.291.654-.377.269-.09.555-.135.843-.132a2.27 2.27 0 0 1 .782.12c.216.082.415.195.587.335l-.183.222a.177.177 0 0 1-.046.04.125.125 0 0 1-.074.017.178.178 0 0 1-.08-.023l-.097-.06-.137-.075a1.55 1.55 0 0 0-.43-.133 1.892 1.892 0 0 0-.325-.024 1.759 1.759 0 0 0-.605.1c-.18.063-.341.158-.475.28-.136.128-.24.28-.308.445a1.498 1.498 0 0 0-.111.587 1.53 1.53 0 0 0 .111.597c.067.164.17.314.303.443.125.12.28.215.453.275.178.064.369.096.561.095.111.001.223-.005.333-.02a1.318 1.318 0 0 0 .72-.305.171.171 0 0 1 .103-.038ZM13.024 39.354c.004.251-.046.5-.147.736a1.593 1.593 0 0 1-.41.573 1.89 1.89 0 0 1-.645.375 2.654 2.654 0 0 1-1.658 0 1.913 1.913 0 0 1-.64-.377 1.679 1.679 0 0 1-.415-.578 1.923 1.923 0 0 1 0-1.475c.093-.216.234-.413.415-.58.182-.159.4-.282.64-.363a2.61 2.61 0 0 1 1.658 0c.242.085.461.213.643.376.18.165.32.359.412.571.101.237.151.489.147.742Zm-.572 0a1.563 1.563 0 0 0-.104-.593 1.22 1.22 0 0 0-.752-.722 1.917 1.917 0 0 0-1.205 0 1.295 1.295 0 0 0-.461.28 1.19 1.19 0 0 0-.295.442 1.737 1.737 0 0 0 0 1.185 1.21 1.21 0 0 0 .756.72c.388.127.816.127 1.205 0a1.29 1.29 0 0 0 .46-.277c.131-.129.23-.28.292-.443.073-.19.108-.391.104-.592ZM17.321 39.975l.058.133c.021-.048.04-.09.062-.133a1.21 1.21 0 0 1 .071-.13l1.393-2.201c.028-.038.052-.062.08-.069a.377.377 0 0 1 .114-.012h.412v3.58h-.488V38.4a.974.974 0 0 1 0-.123l-1.402 2.23a.2.2 0 0 1-.082.082.244.244 0 0 1-.12.03h-.079a.24.24 0 0 1-.12-.03.2.2 0 0 1-.081-.081l-1.443-2.246v2.874h-.471v-3.573h.411a.377.377 0 0 1 .115.012c.034.015.06.04.076.069l1.423 2.203c.028.04.052.084.071.128ZM22.564 39.797v1.34h-.545v-3.574h1.216a2.6 2.6 0 0 1 .679.078c.176.044.34.12.48.223a.924.924 0 0 1 .272.35c.065.147.096.302.093.458a.992.992 0 0 1-.395.815 1.39 1.39 0 0 1-.483.237 2.303 2.303 0 0 1-.657.083l-.66-.01Zm0-.384h.66a1.53 1.53 0 0 0 .423-.054.921.921 0 0 0 .305-.154.687.687 0 0 0 .25-.538.604.604 0 0 0-.054-.291.69.69 0 0 0-.19-.244 1.173 1.173 0 0 0-.734-.192h-.66v1.473ZM29.893 41.143h-.43a.205.205 0 0 1-.12-.034.224.224 0 0 1-.072-.083l-.37-.864h-1.863l-.384.864a.197.197 0 0 1-.068.081.206.206 0 0 1-.123.036h-.43l1.635-3.58h.567l1.658 3.58Zm-2.7-1.33h1.539l-.65-1.456c-.049-.11-.09-.222-.122-.337l-.063.187c-.019.057-.04.11-.06.152l-.643 1.455ZM32.249 37.58c.032.015.06.037.082.064l2.385 2.698v-2.779h.488v3.58h-.272a.265.265 0 0 1-.112-.022.294.294 0 0 1-.087-.066l-2.383-2.696a.974.974 0 0 1 0 .123V41.142h-.488v-3.579h.289a.26.26 0 0 1 .098.017ZM39.223 39.719v1.421h-.545V39.72l-1.508-2.156h.488a.197.197 0 0 1 .117.03c.03.024.055.051.074.081l.943 1.391c.038.06.071.114.098.166.028.052.05.102.069.151l.07-.154c.027-.056.058-.11.093-.163l.93-1.4a.378.378 0 0 1 .07-.076.183.183 0 0 1 .118-.035h.493l-1.51 2.165ZM17.051 31.556c.238.026.477.048.72.067 3.679-1.43 6.791-3.77 8.948-6.729 2.156-2.958 3.261-6.402 3.177-9.903l-4.055-3.523c.825 3.727.44 7.58-1.113 11.128s-4.21 6.65-7.677 8.96Z"/><path fill="#AFB1B8" d="m15.604 31.392.109.02c3.704-2.302 6.528-5.517 8.106-9.228 1.579-3.711 1.84-7.749.75-11.59l-5.775-5.017c2.335 4.124 3.276 8.74 2.71 13.31-.564 4.57-2.61 8.906-5.9 12.505ZM35.188 19.127c-.981 3.846-3.364 7.315-6.795 9.892a21.637 21.637 0 0 1-3.228 2.014c2.794-.714 5.361-1.975 7.505-3.687 2.144-1.712 3.807-3.828 4.86-6.187l-2.342-2.032Z"/><path fill="#AFB1B8" d="m34.269 18.56-3.334-2.897c-.064 3.303-1.145 6.531-3.13 9.349-1.986 2.817-4.804 5.12-8.16 6.672h.016c.748 0 1.495-.04 2.238-.116 3.137-1.113 5.909-2.883 8.067-5.153 2.159-2.27 3.637-4.968 4.303-7.855ZM16.086 3.46 12.108 0C8.552 1.194 5.494 3.293 3.333 6.022 1.173 8.752.011 11.983 0 15.296c.013 3.66 1.431 7.212 4.03 10.093 2.597 2.881 6.227 4.927 10.314 5.814 3.648-3.862 5.784-8.634 6.098-13.623.313-4.99-1.213-9.935-4.356-14.12ZM43.46 18.027c-.014-4.342-2.006-8.503-5.54-11.574-3.535-3.07-8.324-4.8-13.322-4.813-2.31-.002-4.6.368-6.753 1.092L42.2 23.892a14.353 14.353 0 0 0 1.26-5.864Z"/></svg>