<svg xmlns="http://www.w3.org/2000/svg" width="62.54" height="45.433" fill="none" viewBox="0 0 62.54 45.434"><path fill="#AFB1B8" d="M4.757 37.968c.244.277.373.622.367.977.012.232-.033.463-.131.677a1.559 1.559 0 0 1-.438.558 2.628 2.628 0 0 1-1.651.45H0V34.44h2.844a2.592 2.592 0 0 1 1.576.411c.184.14.33.319.425.52.096.2.139.42.127.639.016.341-.1.677-.33.946a1.57 1.57 0 0 1-.866.484c.385.065.733.252.98.53Zm-3.406-.934h1.216c.276.019.55-.054.773-.206a.737.737 0 0 0 .207-.274.679.679 0 0 0 .054-.33.701.701 0 0 0-.055-.33.758.758 0 0 0-.203-.276 1.255 1.255 0 0 0-.796-.208H1.35v1.624Zm2.108 2.374a.775.775 0 0 0 .224-.284.71.71 0 0 0 .063-.345.722.722 0 0 0-.066-.349.787.787 0 0 0-.228-.286 1.338 1.338 0 0 0-.826-.224H1.351v1.703h1.292c.29.015.578-.06.816-.215ZM10.57 40.63 8.99 38.21h-.595v2.42H7.033V34.44H9.61a2.7 2.7 0 0 1 1.793.526c.36.336.578.779.613 1.249a1.86 1.86 0 0 1-.421 1.313 2.147 2.147 0 0 1-1.229.629l1.685 2.474h-1.48Zm-2.176-3.263h1.113c.773 0 1.16-.313 1.16-.938a.852.852 0 0 0-.063-.375.918.918 0 0 0-.221-.32 1.28 1.28 0 0 0-.876-.252H8.381l.013 1.885ZM18.01 39.384h-2.712l-.479 1.246h-1.427l2.49-6.122h1.543l2.481 6.122H18.48l-.469-1.246Zm-.363-.938-.991-2.613-.991 2.613h1.982ZM27.322 40.63h-1.35l-3.03-4.21v4.21h-1.348V34.44h1.348l3.03 4.234V34.44h1.35v6.191ZM35.033 39.148c-.28.468-.705.848-1.223 1.092a4.287 4.287 0 0 1-1.9.39h-2.404V34.44h2.405a4.378 4.378 0 0 1 1.9.38c.517.24.943.616 1.222 1.08.278.504.423 1.06.423 1.625 0 .564-.145 1.12-.423 1.624ZM33.487 39a2.16 2.16 0 0 0 .597-1.477 2.16 2.16 0 0 0-.597-1.478 2.49 2.49 0 0 0-1.692-.526h-.938v4.007h.938A2.49 2.49 0 0 0 33.487 39ZM18.856 0s17.438 6.028 17.069 14.751v14.755S18.499 23.474 18.862 14.75L18.856 0ZM51.46 26.052c3.294-2.076 7.103-3.361 11.08-3.739v-4.619c-4.582 1.617-8.47 4.55-11.08 8.358Z"/><path fill="#AFB1B8" d="M49.482 27.443c2.695-4.97 7.368-8.805 13.058-10.717V3.418s-24.835 8.587-24.31 21.01v21.006s1.107-.385 2.848-1.104c0-.672 0-1.35.079-2.03.514-5.767 3.508-11.111 8.325-14.857Z"/><path fill="#AFB1B8" d="M47.12 35.246c.13-1.456.421-2.898.869-4.3-3 3.234-4.816 7.249-5.194 11.478-.036.4-.056.798-.066 1.21a74.705 74.705 0 0 0 4.777-2.305c-.44-2-.57-4.048-.386-6.083ZM48.107 35.322a19.058 19.058 0 0 0 .308 5.508c6.785-3.718 14.409-9.461 14.115-16.403v-.605c-4.848.497-9.383 2.437-12.91 5.523a19.256 19.256 0 0 0-1.513 5.977Z"/></svg>