<svg width="18.000000" height="18.000000" viewBox="0 0 18 18" fill="none" xmlns="http://www.w3.org/2000/svg" xmlns:xlink="http://www.w3.org/1999/xlink">
	<desc>
			Created with Pixso.
	</desc>
	<defs>
		<clipPath id="clip1_5925">
			<rect id="person-black-18dp 1" width="18.000000" height="18.000000" fill="white" fill-opacity="0"/>
		</clipPath>
	</defs>
	<rect id="person-black-18dp 1" width="18.000000" height="18.000000" fill="#FFFFFF" fill-opacity="0"/>
	<g clip-path="url(#clip1_5925)">
		<path id="Vector" d="M9 9C10.65 9 12 7.65 12 6C12 4.34 10.65 3 9 3C7.34 3 6 4.34 6 6C6 7.65 7.34 9 9 9ZM9 10.5C6.99 10.5 3 11.5 3 13.5L3 14.25C3 14.66 3.33 15 3.75 15L14.25 15C14.66 15 15 14.66 15 14.25L15 13.5C15 11.5 11 10.5 9 10.5Z" fill="#2196F3" fill-opacity="1.000000" fill-rule="nonzero"/>
	</g>
</svg>
