<svg xmlns="http://www.w3.org/2000/svg" width="20" height="20" fill="none"><defs><clipPath id="a"><path fill="#fff" fill-opacity="0" d="M0 0h20v20H0z"/></clipPath></defs><path fill="none" d="M0 0h20v20H0z"/><g clip-path="url(#a)"><path fill="#AFB1B8" d="M20 3.799a8.55 8.55 0 0 1-2.363.647 4.078 4.078 0 0 0 1.804-2.266 8.192 8.192 0 0 1-2.6.992 4.099 4.099 0 0 0-7.093 2.804c0 .325.028.638.096.935-3.409-.166-6.425-1.8-8.452-4.288a4.128 4.128 0 0 0-.56 2.072c0 1.42.73 2.679 1.82 3.407A4.048 4.048 0 0 1 .8 7.597v.046a4.119 4.119 0 0 0 3.285 4.028 4.094 4.094 0 0 1-1.075.135c-.262 0-.527-.015-.776-.07.531 1.624 2.038 2.818 3.83 2.856a8.238 8.238 0 0 1-5.083 1.75c-.336 0-.658-.016-.981-.057a11.544 11.544 0 0 0 6.29 1.84c7.545 0 11.67-6.25 11.67-11.667 0-.182-.006-.357-.015-.53A8.178 8.178 0 0 0 20 3.797Z"/></g></svg>